<?xml version="1.0" encoding="utf-8"?>
<!-- Generator: Adobe Illustrator 24.3.0, SVG Export Plug-In . SVG Version: 6.00 Build 0)  -->
<svg version="1.1" id="Layer_1" xmlns="http://www.w3.org/2000/svg" xmlns:xlink="http://www.w3.org/1999/xlink" x="0px" y="0px"
	 viewBox="0 0 621 196" style="enable-background:new 0 0 621 196;" xml:space="preserve">
<style type="text/css">
	.st0{fill:#FFFFFF;}
</style>
<g>
	<path class="st0" d="M546,196c-41.4,0-75-33.6-75-75s33.6-75,75-75s75,33.6,75,75S587.4,196,546,196z M546,165
		c24.3,0,44-19.7,44-44s-19.7-44-44-44s-44,19.7-44,44S521.7,165,546,165z M389,196c-41.4,0-75-33.6-75-75s33.6-75,75-75
		s75,33.6,75,75S430.4,196,389,196z M389,165c24.3,0,44-19.7,44-44s-19.7-44-44-44s-44,19.7-44,44S364.7,165,389,165z M307,120
		c0,41.9-33.6,76-75,76c-41.4,0-75-34-75-75.9c0-41.9,30.5-74.1,75-74.1c16.4,0,31.6,3.5,44,12.6l0-43.5C276,6.8,283.3,0,291.5,0
		c8.2,0,15.5,6.8,15.5,15.1V120z M232,165c24.3,0,44-19.7,44-44s-19.7-44-44-44s-44,19.7-44,44S207.7,165,232,165z"/>
	<path class="st0" d="M75,196c-41.4,0-75-33.6-75-75s33.6-75,75-75s75,33.6,75,75S116.4,196,75,196z M75,165c24.3,0,44-19.7,44-44
		S99.3,77,75,77s-44,19.7-44,44S50.7,165,75,165z"/>
</g>
</svg>
